<svg width="23" height="22" viewBox="0 0 23 22" fill="none" xmlns="http://www.w3.org/2000/svg">
<path d="M22.1667 11C22.1667 11.8416 21.4845 12.5238 20.6429 12.5238H13.0239V20.1429C13.0239 20.9844 12.3416 21.6667 11.5 21.6667C10.6585 21.6667 9.97623 20.9844 9.97623 20.1429V12.5238H2.35718C1.51561 12.5238 0.833374 11.8416 0.833374 11C0.833374 10.1584 1.51561 9.47619 2.35718 9.47619H9.97623V1.85714C9.97623 1.01556 10.6585 0.333328 11.5 0.333328C12.3416 0.333328 13.0239 1.01556 13.0239 1.85714V9.47619H20.6429C21.4845 9.47619 22.1667 10.1584 22.1667 11Z" fill="white"/>
</svg>
