<svg width="56" height="56" viewBox="0 0 56 56" fill="none" xmlns="http://www.w3.org/2000/svg">
<rect width="56" height="56" rx="9" fill="#445AFF"/>
<path d="M10.5001 37.625L16.4537 29.6882L10.9011 21.9938H16.1143L17.8109 24.5082L19.1065 26.5378H19.3533L20.6798 24.5082L22.4072 21.9938H27.1886L21.6361 29.4459L27.5896 37.625H22.3455L20.3405 34.6866L18.9523 32.5964H18.7055L17.3482 34.6866L15.3123 37.625H10.5001Z" fill="white"/>
<path d="M38.5285 19.9945C37.5002 19.9945 36.7805 19.7926 36.3692 19.3886C35.9784 18.9645 35.7831 18.4597 35.7831 17.874V16.9955C35.7831 16.3896 35.9784 15.8848 36.3692 15.4809C36.7805 15.077 37.5002 14.875 38.5285 14.875C39.5568 14.875 40.2663 15.077 40.657 15.4809C41.0683 15.8848 41.2739 16.3896 41.2739 16.9955V17.874C41.2739 18.4597 41.0683 18.9645 40.657 19.3886C40.2663 19.7926 39.5568 19.9945 38.5285 19.9945ZM31.1868 34.1413H36.2458V25.4775H31.1868V21.9938H40.8112V34.1413H45.5001V37.625H31.1868V34.1413Z" fill="white"/>
</svg>
